<svg width="139" height="99" viewBox="0 0 139 99" fill="none" xmlns="http://www.w3.org/2000/svg">
<g clip-path="url(#clip0_446_4082)">
<path fill-rule="evenodd" clip-rule="evenodd" d="M68.8957 0C49.5993 0 34 15.7143 34 35.155C34 50.695 43.995 63.8493 57.8607 68.505C59.5943 68.855 60.2293 67.7486 60.2293 66.8179C60.2293 66.0029 60.1721 63.2093 60.1721 60.2986C50.465 62.3943 48.4436 56.1079 48.4436 56.1079C46.8836 52.0336 44.5721 50.9864 44.5721 50.9864C41.395 48.8329 44.8036 48.8329 44.8036 48.8329C48.3279 49.0657 50.1771 52.4414 50.1771 52.4414C53.2964 57.7957 58.3229 56.2829 60.345 55.3514C60.6336 53.0814 61.5586 51.51 62.5407 50.6371C54.7986 49.8221 46.6529 46.7957 46.6529 33.2921C46.6529 29.4507 48.0386 26.3079 50.2343 23.8636C49.8879 22.9907 48.6743 19.3814 50.5814 14.5507C50.5814 14.5507 53.5279 13.6193 60.1714 18.1593C63.0158 17.3898 65.9491 16.9983 68.8957 16.995C71.8421 16.995 74.8457 17.4029 77.6193 18.1593C84.2636 13.6193 87.21 14.5507 87.21 14.5507C89.1171 19.3814 87.9029 22.9907 87.5564 23.8636C89.81 26.3079 91.1386 29.4507 91.1386 33.2921C91.1386 46.7957 82.9929 49.7636 75.1929 50.6371C76.4643 51.7429 77.5614 53.8379 77.5614 57.1557C77.5614 61.87 77.5043 65.6536 77.5043 66.8171C77.5043 67.7486 78.14 68.855 79.8729 68.5057C93.7386 63.8486 103.734 50.695 103.734 35.155C103.791 15.7143 88.1343 0 68.8957 0Z" fill="#24292F"/>
</g>
<path d="M3.12 93.5634C3.12 93.5634 3.096 93.5474 3.048 93.5154C3 93.4994 2.936 93.4834 2.856 93.4674C2.792 93.4514 2.712 93.4434 2.616 93.4434C2.36 93.3794 2.176 93.2354 2.064 93.0114C1.952 92.8034 1.928 92.5714 1.992 92.3154C2.056 92.2514 2.104 92.1154 2.136 91.9074C2.168 91.6994 2.184 91.5314 2.184 91.4034C2.248 91.2754 2.288 91.1874 2.304 91.1394C2.32 91.0754 2.36 90.9154 2.424 90.6594C2.472 90.3874 2.552 90.0114 2.664 89.5314C2.792 89.0354 2.928 88.5074 3.072 87.9474C3.232 87.3874 3.384 86.8514 3.528 86.3394C3.672 85.8274 3.8 85.3954 3.912 85.0434C4.04 84.6914 4.128 84.4914 4.176 84.4434C4.176 84.4434 4.176 84.4194 4.176 84.3714C4.176 84.3074 4.176 84.2434 4.176 84.1794C4.176 84.1794 4.184 84.1074 4.2 83.9634C4.232 83.8034 4.312 83.6274 4.44 83.4354C4.504 83.2594 4.56 83.0674 4.608 82.8594C4.656 82.6514 4.68 82.5154 4.68 82.4514C4.744 82.3714 4.832 82.1794 4.944 81.8754C5.072 81.5554 5.192 81.2434 5.304 80.9394C5.4 80.6834 5.504 80.4114 5.616 80.1234C5.744 79.8354 5.848 79.5874 5.928 79.3794C6.024 79.1714 6.072 79.0674 6.072 79.0674C6.072 79.0034 6.072 78.9714 6.072 78.9714C6.072 78.9554 6.072 78.9474 6.072 78.9474C6.136 78.8834 6.288 78.5634 6.528 77.9874C6.784 77.3954 7.128 76.6354 7.56 75.7074C7.624 75.5794 7.704 75.4354 7.8 75.2754C7.896 75.1154 7.944 75.0034 7.944 74.9394C8.024 74.8114 8.136 74.7554 8.28 74.7714C8.424 74.7714 8.568 74.8194 8.712 74.9154C8.872 75.0114 8.992 75.1474 9.072 75.3234L9.312 75.7074L8.448 77.4354C8.192 77.8834 7.976 78.2914 7.8 78.6594C7.64 79.0274 7.56 79.2434 7.56 79.3074C7.56 79.3074 7.512 79.4354 7.416 79.6914C7.32 79.9474 7.208 80.2514 7.08 80.6034C6.952 80.9554 6.84 81.2754 6.744 81.5634C6.568 82.0594 6.4 82.4674 6.24 82.7874C6.096 83.1074 6.024 83.2994 6.024 83.3634C6.024 83.3314 6.2 83.3074 6.552 83.2914C6.904 83.2754 7.352 83.2674 7.896 83.2674C8.44 83.2674 8.992 83.2674 9.552 83.2674C10.128 83.2514 10.632 83.2434 11.064 83.2434C11.512 83.2274 11.816 83.2034 11.976 83.1714L13.224 83.0514L14.04 80.5794C14.168 80.1314 14.336 79.5874 14.544 78.9474C14.752 78.3074 14.936 77.7634 15.096 77.3154C15.352 76.5794 15.552 76.1234 15.696 75.9474C15.84 75.7714 16.008 75.6834 16.2 75.6834C16.248 75.6834 16.312 75.6994 16.392 75.7314C16.488 75.7474 16.576 75.7874 16.656 75.8514C16.752 75.8994 16.816 75.9714 16.848 76.0674C17.04 76.2434 17.128 76.4434 17.112 76.6674C17.112 76.8914 16.984 77.1874 16.728 77.5554C16.472 77.9874 16.256 78.4594 16.08 78.9714C15.92 79.4674 15.776 79.8754 15.648 80.1954C15.648 80.3874 15.624 80.5474 15.576 80.6754C15.528 80.7874 15.472 80.8754 15.408 80.9394C15.376 80.9714 15.312 81.0914 15.216 81.2994C15.12 81.5074 15.032 81.7154 14.952 81.9234C14.872 82.1314 14.832 82.2594 14.832 82.3074C14.832 82.4194 14.808 82.5554 14.76 82.7154C14.712 82.8754 14.656 82.9874 14.592 83.0514C14.56 83.1474 14.488 83.3874 14.376 83.7714C14.264 84.1554 14.136 84.6114 13.992 85.1394C13.848 85.6514 13.696 86.1554 13.536 86.6514C13.376 87.1314 13.232 87.5314 13.104 87.8514C13.104 87.9634 13.064 88.1074 12.984 88.2834C12.904 88.4434 12.864 88.5874 12.864 88.7154C12.8 88.9074 12.72 89.1474 12.624 89.4354C12.528 89.7234 12.48 89.9074 12.48 89.9874C12.4 90.3554 12.312 90.7314 12.216 91.1154C12.136 91.4994 12.064 91.8274 12 92.0994C11.952 92.3874 11.928 92.5554 11.928 92.6034C11.864 92.6674 11.768 92.6754 11.64 92.6274C11.512 92.5794 11.36 92.5234 11.184 92.4594C10.88 92.2834 10.696 92.0914 10.632 91.8834C10.584 91.6914 10.648 91.4114 10.824 91.0434C10.904 90.9154 11 90.6034 11.112 90.1074C11.24 89.5954 11.368 89.0914 11.496 88.5954C11.592 88.3554 11.696 88.0354 11.808 87.6354C11.92 87.2194 12.032 86.8034 12.144 86.3874C12.256 85.9554 12.352 85.5954 12.432 85.3074C12.512 85.0034 12.568 84.8354 12.6 84.8034C12.6 84.7394 12.6 84.6834 12.6 84.6354C12.6 84.5874 12.6 84.5634 12.6 84.5634C12.568 84.5314 12.368 84.5074 12 84.4914C11.632 84.4594 11.176 84.4514 10.632 84.4674C10.088 84.4674 9.52 84.4834 8.928 84.5154C8.352 84.5314 7.832 84.5714 7.368 84.6354C7.192 84.6354 6.992 84.6354 6.768 84.6354C6.544 84.6354 6.368 84.6354 6.24 84.6354C6.064 84.6354 5.912 84.6354 5.784 84.6354C5.672 84.6354 5.616 84.6354 5.616 84.6354C5.6 84.6834 5.544 84.8514 5.448 85.1394C5.352 85.4274 5.24 85.7794 5.112 86.1954C4.984 86.5954 4.848 87.0114 4.704 87.4434C4.576 87.8594 4.464 88.2434 4.368 88.5954C4.288 88.9314 4.232 89.1714 4.2 89.3154C4.136 89.6034 4.048 89.9634 3.936 90.3954C3.84 90.8274 3.728 91.2674 3.6 91.7154C3.488 92.1794 3.384 92.5794 3.288 92.9154C3.208 93.2514 3.152 93.4674 3.12 93.5634ZM20.1474 90.7314C19.8114 91.0194 19.4194 91.1874 18.9714 91.2354C18.5394 91.2834 18.1154 91.2194 17.6994 91.0434C17.2834 90.8514 16.9394 90.5634 16.6674 90.1794C16.3954 89.8274 16.2194 89.4274 16.1394 88.9794C16.0594 88.5154 16.0514 87.9154 16.1154 87.1794C16.1634 86.5554 16.3634 85.9314 16.7154 85.3074C17.0674 84.6674 17.4914 84.0994 17.9874 83.6034C18.4994 83.1074 19.0034 82.7634 19.4994 82.5714C19.7394 82.4114 19.9394 82.3394 20.0994 82.3554C20.2754 82.3554 20.5394 82.3714 20.8914 82.4034C21.2594 82.4514 21.5314 82.5234 21.7074 82.6194C21.8994 82.7154 22.0514 82.8434 22.1634 83.0034C22.4034 83.2434 22.5634 83.4834 22.6434 83.7234C22.7234 83.9474 22.7634 84.1714 22.7634 84.3954C22.6994 84.7474 22.4594 85.1794 22.0434 85.6914C21.6434 86.1874 21.1154 86.5954 20.4594 86.9154C20.1074 87.0274 19.7234 87.0754 19.3074 87.0594C18.8914 87.0434 18.5474 86.9394 18.2754 86.7474C17.9714 86.6194 17.7714 86.6434 17.6754 86.8194C17.5794 86.9794 17.4914 87.3794 17.4114 88.0194C17.3474 88.6274 17.3954 89.0754 17.5554 89.3634C17.7154 89.6354 17.9314 89.7954 18.2034 89.8434C18.5234 89.9074 18.7714 89.9554 18.9474 89.9874C19.1394 90.0034 19.3714 89.9314 19.6434 89.7714C19.8994 89.6114 20.0594 89.5234 20.1234 89.5074C20.1874 89.4754 20.2354 89.4434 20.2674 89.4114C20.3154 89.3634 20.4194 89.2594 20.5794 89.0994C20.6914 88.9874 20.7794 88.9074 20.8434 88.8594C20.9074 88.7954 20.9794 88.7634 21.0594 88.7634C21.1394 88.7634 21.2114 88.8034 21.2754 88.8834C21.3394 88.9474 21.4034 88.9954 21.4674 89.0274C21.6274 89.0274 21.6594 89.1234 21.5634 89.3154C21.4834 89.5074 21.3154 89.7394 21.0594 90.0114C20.8034 90.2674 20.4994 90.5074 20.1474 90.7314ZM20.1234 85.6434C20.2994 85.5634 20.4834 85.4514 20.6754 85.3074C20.8674 85.1474 21.0274 84.9794 21.1554 84.8034C21.2994 84.6114 21.3714 84.4514 21.3714 84.3234C21.3714 84.0994 21.2674 83.9154 21.0594 83.7714C20.8514 83.6114 20.5394 83.5874 20.1234 83.6994C19.9474 83.7474 19.7474 83.8674 19.5234 84.0594C19.2994 84.2354 19.0834 84.4354 18.8754 84.6594C18.6834 84.8834 18.5234 85.0834 18.3954 85.2594C18.2834 85.4354 18.2434 85.5394 18.2754 85.5714C18.3234 85.6514 18.4594 85.7154 18.6834 85.7634C18.9074 85.7954 19.1554 85.8034 19.4274 85.7874C19.7154 85.7714 19.9474 85.7234 20.1234 85.6434ZM24.1841 90.7314C24.0401 90.6194 23.9361 90.5074 23.8721 90.3954C23.8241 90.2834 23.8241 90.0674 23.8721 89.7474C23.9201 89.2994 23.9841 88.9074 24.0641 88.5714C24.1441 88.2194 24.2401 87.8194 24.3521 87.3714C24.3841 87.1794 24.4721 86.8514 24.6161 86.3874C24.7761 85.9234 24.9681 85.4194 25.1921 84.8754C25.4161 84.3314 25.6401 83.8194 25.8641 83.3394C26.0881 82.8434 26.2801 82.4754 26.4401 82.2354C26.5681 82.1394 26.7201 82.0994 26.8961 82.1154C27.0881 82.1314 27.2481 82.2034 27.3761 82.3314C27.5521 82.4754 27.5761 82.7314 27.4481 83.0994C27.3361 83.4514 27.0961 84.0114 26.7281 84.7794C26.5361 85.2114 26.3921 85.5394 26.2961 85.7634C26.2001 85.9714 26.1601 86.0994 26.1761 86.1474C26.1921 86.1794 26.2641 86.1554 26.3921 86.0754C26.4881 85.8994 26.6641 85.6994 26.9201 85.4754C27.1761 85.2354 27.4481 85.0034 27.7361 84.7794C28.0241 84.5554 28.2961 84.3554 28.5521 84.1794C28.8081 84.0034 28.9841 83.8914 29.0801 83.8434C29.2081 83.7634 29.3521 83.6994 29.5121 83.6514C29.6881 83.5874 29.8081 83.5394 29.8721 83.5074C30.2401 83.3314 30.6161 83.2674 31.0001 83.3154C31.3841 83.3634 31.6241 83.5074 31.7201 83.7474C31.7361 83.8754 31.7841 83.9714 31.8641 84.0354C31.9601 84.0994 32.0081 84.1314 32.0081 84.1314C32.0721 84.1314 32.1041 84.1554 32.1041 84.2034C32.1201 84.2514 32.1281 84.2754 32.1281 84.2754C32.1281 84.3874 32.0401 84.4594 31.8641 84.4914C31.7041 84.5074 31.4961 84.5234 31.2401 84.5394C31.0321 84.5554 30.8481 84.5954 30.6881 84.6594C30.5281 84.7234 30.3361 84.8034 30.1121 84.8994C29.5041 85.2514 28.9201 85.5954 28.3601 85.9314C27.8161 86.2674 27.2881 86.7154 26.7761 87.2754C26.6641 87.4034 26.5521 87.5554 26.4401 87.7314C26.3281 87.9074 26.2081 88.0994 26.0801 88.3074C26.0001 88.3874 25.9201 88.5634 25.8401 88.8354C25.7601 89.1074 25.6881 89.3714 25.6241 89.6274C25.5761 89.8674 25.5521 90.0114 25.5521 90.0594C25.5521 90.0594 25.5281 90.1394 25.4801 90.2994C25.4321 90.4434 25.3521 90.5874 25.2401 90.7314C25.0481 90.9874 24.8881 91.1154 24.7601 91.1154C24.6321 91.1154 24.4401 90.9874 24.1841 90.7314ZM33.0486 90.6834C33.0006 90.6194 32.9526 90.5394 32.9046 90.4434C32.8726 90.3474 32.8566 90.2674 32.8566 90.2034C32.8566 90.1714 32.8486 90.1314 32.8326 90.0834C32.8326 90.0354 32.8006 90.0114 32.7366 90.0114C32.6886 89.9634 32.7206 89.7794 32.8326 89.4594C32.9606 89.1234 33.1206 88.7394 33.3126 88.3074C33.5206 87.8754 33.7286 87.4594 33.9366 87.0594C34.1606 86.6434 34.3446 86.3154 34.4886 86.0754C34.5686 86.0274 34.6166 85.9634 34.6326 85.8834C34.6646 85.7874 34.6646 85.7394 34.6326 85.7394C34.6326 85.7394 34.6726 85.6674 34.7526 85.5234C34.8486 85.3634 34.9206 85.2594 34.9686 85.2114C35.0966 84.9874 35.1926 84.7634 35.2566 84.5394C35.3206 84.2994 35.3366 84.0994 35.3046 83.9394C35.2406 83.8594 35.1686 83.8354 35.0886 83.8674C35.0086 83.8994 34.9686 83.9154 34.9686 83.9154C34.9046 83.9314 34.8086 83.9634 34.6806 84.0114C34.5686 84.0434 34.4646 84.0914 34.3686 84.1554C34.0006 84.4114 33.7526 84.5314 33.6246 84.5154C33.4966 84.4834 33.3526 84.2754 33.1926 83.8914C33.1286 83.7154 33.1046 83.5874 33.1206 83.5074C33.1366 83.4274 33.2006 83.3394 33.3126 83.2434C33.4406 83.1314 33.5606 83.0594 33.6726 83.0274C33.7846 82.9794 33.8726 82.9314 33.9366 82.8834C34.1126 82.7714 34.2566 82.6914 34.3686 82.6434C34.4966 82.5954 34.5926 82.5634 34.6566 82.5474C35.0726 82.4194 35.4246 82.3954 35.7126 82.4754C36.0006 82.5554 36.2166 82.7634 36.3606 83.0994C36.5846 83.3714 36.6966 83.6834 36.6966 84.0354C36.6966 84.3714 36.5846 84.7634 36.3606 85.2114L36.1206 85.5714C36.0406 85.7314 36.0246 85.8114 36.0726 85.8114C36.1366 85.8114 36.2086 85.7554 36.2886 85.6434C36.3366 85.5794 36.4326 85.4834 36.5766 85.3554C36.7206 85.2274 36.8166 85.1634 36.8646 85.1634C36.8646 85.1634 36.8806 85.1554 36.9126 85.1394C36.9606 85.1234 36.9846 85.0594 36.9846 84.9474C37.0326 84.8994 37.0806 84.8514 37.1286 84.8034C37.1926 84.7554 37.2246 84.7314 37.2246 84.7314C37.2886 84.7314 37.4086 84.6594 37.5846 84.5154C37.7766 84.3554 38.0006 84.1714 38.2566 83.9634C38.4326 83.8354 38.5926 83.7714 38.7366 83.7714C39.1046 83.6594 39.4006 83.7794 39.6246 84.1314C39.8646 84.4834 39.9846 84.9394 39.9846 85.4994L39.4806 86.7954L40.3446 85.7394C40.4406 85.6114 40.5366 85.4994 40.6326 85.4034C40.7446 85.3074 40.8406 85.2274 40.9206 85.1634C40.9526 85.0514 41.0006 84.9874 41.0646 84.9714C41.1286 84.9554 41.1606 84.9474 41.1606 84.9474C41.1606 84.9474 41.1766 84.9474 41.2086 84.9474C41.2406 84.9314 41.2566 84.8994 41.2566 84.8514C41.3366 84.7874 41.4246 84.7314 41.5206 84.6834C41.6166 84.6194 41.6806 84.5554 41.7126 84.4914C41.9846 84.3794 42.2326 84.3634 42.4566 84.4434C42.6806 84.5074 42.8726 84.7074 43.0326 85.0434C43.1446 85.2354 43.2086 85.4034 43.2246 85.5474C43.2406 85.6914 43.2486 85.9074 43.2486 86.1954C43.2166 86.4354 43.1846 86.6274 43.1526 86.7714C43.1366 86.8994 43.1206 87.0354 43.1046 87.1794C43.0886 87.3234 43.0646 87.5234 43.0326 87.7794C42.9686 87.9074 42.9286 88.0434 42.9126 88.1874C42.9126 88.3314 42.9126 88.4674 42.9126 88.5954C42.9126 88.8034 42.9206 88.9474 42.9366 89.0274C42.9526 89.0914 43.0166 89.1234 43.1286 89.1234C43.3526 89.0754 43.6566 88.9634 44.0406 88.7874C44.4406 88.5954 44.7366 88.4114 44.9286 88.2354C45.1686 88.0114 45.3766 87.8994 45.5526 87.8994C45.7446 87.8834 45.8646 87.9714 45.9126 88.1634C45.9446 88.2274 45.8886 88.3714 45.7446 88.5954C45.6166 88.8194 45.4646 89.0354 45.2886 89.2434C45.1286 89.4514 45.0086 89.5554 44.9286 89.5554C44.8806 89.5554 44.8246 89.6034 44.7606 89.6994C44.6966 89.7794 44.6246 89.8434 44.5446 89.8914C44.4326 90.0034 44.3206 90.1074 44.2086 90.2034C44.1126 90.2994 44.0006 90.3474 43.8726 90.3474C43.8086 90.3474 43.7286 90.3714 43.6326 90.4194C43.5526 90.4514 43.4566 90.4674 43.3446 90.4674C43.1846 90.5154 42.9366 90.4914 42.6006 90.3954C42.2806 90.2994 42.0726 90.0754 41.9766 89.7234C41.9126 89.5474 41.8566 89.2674 41.8086 88.8834C41.7606 88.4834 41.7686 88.0834 41.8326 87.6834C41.8966 87.3954 41.9366 87.1314 41.9526 86.8914C41.9686 86.6514 42.0006 86.4834 42.0486 86.3874C42.0486 86.3394 42.0486 86.2274 42.0486 86.0514C42.0486 85.8594 42.0246 85.7634 41.9766 85.7634C41.9126 85.7634 41.7606 85.8834 41.5206 86.1234C41.2966 86.3474 41.0246 86.6354 40.7046 86.9874C40.4006 87.3394 40.0966 87.7074 39.7926 88.0914C39.4886 88.4754 39.2406 88.8194 39.0486 89.1234C38.9046 89.2994 38.7766 89.5154 38.6646 89.7714C38.5526 90.0274 38.4726 90.1714 38.4246 90.2034C38.3126 90.3314 38.1766 90.3474 38.0166 90.2514C37.8726 90.1554 37.7366 90.0034 37.6086 89.7954C37.5606 89.6994 37.5286 89.6194 37.5126 89.5554C37.4966 89.4754 37.4966 89.3714 37.5126 89.2434C37.5446 89.0994 37.6006 88.8914 37.6806 88.6194C37.7766 88.3474 37.9046 87.9634 38.0646 87.4674C38.2406 86.9234 38.3926 86.4354 38.5206 86.0034C38.6646 85.5554 38.7366 85.3314 38.7366 85.3314C38.7366 85.2674 38.6166 85.3314 38.3766 85.5234C38.1366 85.6994 37.8566 85.9234 37.5366 86.1954C37.3926 86.3714 37.1526 86.6354 36.8166 86.9874C36.4806 87.3394 36.1126 87.7394 35.7126 88.1874C35.3126 88.6354 34.9286 89.1074 34.5606 89.6034C34.0966 90.2594 33.7686 90.6594 33.5766 90.8034C33.4006 90.9474 33.2246 90.9074 33.0486 90.6834ZM49.3759 91.6434C48.6719 91.6434 48.0959 91.3794 47.6479 90.8514C47.1999 90.3074 46.9839 89.6354 46.9999 88.8354C47.0319 88.2594 47.1439 87.6434 47.3359 86.9874C47.5439 86.3154 47.8159 85.6754 48.1519 85.0674C48.4879 84.4434 48.8559 83.8994 49.2559 83.4354C49.6559 82.9714 50.0719 82.6434 50.5039 82.4514C50.6639 82.3714 50.8319 82.3074 51.0079 82.2594C51.1999 82.2114 51.3919 82.1874 51.5839 82.1874C51.7599 82.1874 51.9439 82.2194 52.1359 82.2834C52.3279 82.3314 52.4879 82.3874 52.6159 82.4514C52.8879 82.5634 53.0959 82.6994 53.2399 82.8594C53.3839 83.0194 53.5119 83.2674 53.6239 83.6034C53.6719 83.9074 53.6959 84.1234 53.6959 84.2514C53.6959 84.3794 53.6559 84.5714 53.5759 84.8274C53.3839 85.4034 53.1359 85.8994 52.8319 86.3154C52.5279 86.7314 52.1199 87.0834 51.6079 87.3714C51.4799 87.4514 51.3279 87.5154 51.1519 87.5634C50.9919 87.5954 50.8239 87.6114 50.6479 87.6114C50.3279 87.6114 50.0159 87.5554 49.7119 87.4434C49.4239 87.3154 49.1919 87.1314 49.0159 86.8914L48.8479 86.6994L48.7759 86.8914C48.6159 87.3234 48.4879 87.7234 48.3919 88.0914C48.3119 88.4594 48.2719 88.7954 48.2719 89.0994C48.2719 89.2914 48.2879 89.4754 48.3199 89.6514C48.3679 89.8274 48.4319 89.9794 48.5119 90.1074C48.5759 90.2034 48.6799 90.2754 48.8239 90.3234C48.9839 90.3554 49.1519 90.3714 49.3279 90.3714C49.4399 90.3714 49.5519 90.3714 49.6639 90.3714C49.7919 90.3554 49.9119 90.3234 50.0239 90.2754C50.2959 90.1794 50.5119 90.0754 50.6719 89.9634C50.8479 89.8514 51.0239 89.7314 51.1999 89.6034L51.2959 89.5554H51.2719C51.4639 89.4594 51.6319 89.3634 51.7759 89.2674C51.9359 89.1714 52.0159 89.1234 52.0159 89.1234C52.0799 89.1234 52.1439 89.0834 52.2079 89.0034C52.3359 88.9394 52.4959 88.9634 52.6879 89.0754C52.8959 89.1874 52.9999 89.3314 52.9999 89.5074C52.9839 89.5874 52.9119 89.7154 52.7839 89.8914C52.6559 90.0514 52.5119 90.2034 52.3519 90.3474C52.2079 90.4914 52.0879 90.5714 51.9919 90.5874C51.9759 90.6034 51.9199 90.6354 51.8239 90.6834C51.7279 90.7154 51.6639 90.7474 51.6319 90.7794H51.6559C51.5119 90.9714 51.3679 91.0674 51.2239 91.0674H51.0319C50.9679 91.1794 50.7599 91.3074 50.4079 91.4514C50.0559 91.5794 49.7119 91.6434 49.3759 91.6434ZM50.4559 86.3634C50.7439 86.3634 50.9919 86.2834 51.1999 86.1234C51.4239 85.9474 51.6159 85.7554 51.7759 85.5474C52.0959 85.1154 52.2799 84.6994 52.3279 84.2994C52.3919 83.8834 52.3439 83.5954 52.1839 83.4354C52.0879 83.3874 51.9999 83.3634 51.9199 83.3634C51.8559 83.3474 51.7199 83.3714 51.5119 83.4354C51.3679 83.4674 51.1679 83.5874 50.9119 83.7954C50.6559 84.0034 50.3999 84.2354 50.1439 84.4914C49.9039 84.7474 49.7199 84.9634 49.5919 85.1394L49.2799 85.6434C49.4079 85.5954 49.5279 85.5714 49.6399 85.5714C49.7679 85.5554 49.8399 85.5634 49.8559 85.5954C49.8559 85.7394 49.8799 85.8754 49.9279 86.0034C49.9919 86.1154 50.0639 86.2034 50.1439 86.2674C50.2399 86.3314 50.3439 86.3634 50.4559 86.3634ZM57.0846 91.2354C56.2846 91.2354 55.7006 90.9474 55.3326 90.3714C55.2206 90.2114 55.1646 90.0514 55.1646 89.8914C55.1806 89.7154 55.2286 89.5954 55.3086 89.5314C55.4046 89.4674 55.5166 89.5234 55.6446 89.6994C55.8686 89.8274 56.1886 89.8914 56.6046 89.8914C56.8126 89.8914 57.0286 89.8754 57.2526 89.8434C57.4766 89.7954 57.7006 89.7314 57.9246 89.6514C58.1646 89.5394 58.3246 89.4434 58.4046 89.3634C58.4846 89.2674 58.4686 89.1874 58.3566 89.1234H58.3806C57.9646 89.0114 57.5406 88.8354 57.1086 88.5954C56.6926 88.3394 56.3326 88.0674 56.0286 87.7794C55.7246 87.4754 55.5486 87.2034 55.5006 86.9634C55.3726 86.4674 55.4046 85.9634 55.5966 85.4514C55.7886 84.9234 56.0606 84.4594 56.4126 84.0594C56.5406 83.9794 56.7006 83.8834 56.8926 83.7714C57.0846 83.6434 57.2366 83.5714 57.3486 83.5554V83.5794C57.6526 83.2594 58.0206 83.0034 58.4526 82.8114C58.9006 82.6194 59.3726 82.4434 59.8686 82.2834L60.2286 82.2354C60.4206 82.2034 60.5806 82.1874 60.7086 82.1874C60.6926 82.1874 60.7246 82.2034 60.8046 82.2354C60.8846 82.2514 60.9566 82.2674 61.0206 82.2834C61.1166 82.3314 61.1966 82.3554 61.2606 82.3554C61.4686 82.3874 61.6606 82.4834 61.8366 82.6434C62.0126 82.8034 62.1486 82.9954 62.2446 83.2194C62.3566 83.4274 62.3966 83.6274 62.3646 83.8194C62.3326 84.1234 62.2366 84.3954 62.0766 84.6354C61.9326 84.8754 61.7566 85.0114 61.5486 85.0434C61.5806 85.0274 61.5566 85.0034 61.4766 84.9714C61.4126 84.9234 61.3406 84.8754 61.2606 84.8274L61.1886 84.8754C61.1886 84.8754 61.1806 84.8594 61.1646 84.8274C61.1646 84.7794 61.1486 84.7234 61.1166 84.6594C61.0686 84.5634 61.0446 84.4594 61.0446 84.3474C61.0446 84.2194 61.0526 84.0834 61.0686 83.9394C61.1006 83.7634 61.1006 83.6594 61.0686 83.6274C61.0526 83.5954 60.9486 83.5714 60.7566 83.5554C60.5326 83.5074 60.2046 83.5474 59.7726 83.6754C59.3566 83.8034 59.0046 83.9794 58.7166 84.2034C58.3646 84.4274 58.0686 84.6434 57.8286 84.8514C57.5886 85.0434 57.3966 85.2354 57.2526 85.4274C57.1086 85.6034 56.9806 85.8114 56.8686 86.0514C56.7886 86.1634 56.7166 86.2754 56.6526 86.3874C56.6046 86.4834 56.5806 86.5714 56.5806 86.6514C56.5806 86.8274 56.7086 87.0114 56.9646 87.2034C57.2366 87.3794 57.6366 87.5874 58.1646 87.8274C58.5806 88.0034 58.9326 88.1954 59.2206 88.4034C59.5086 88.6114 59.7086 88.8514 59.8206 89.1234C59.8526 89.1874 59.8606 89.2674 59.8446 89.3634C59.8446 89.4434 59.8286 89.4994 59.7966 89.5314C59.8286 89.5634 59.8446 89.5874 59.8446 89.6034V89.5794C59.9726 89.7714 59.9726 89.9714 59.8446 90.1794C59.7326 90.3874 59.5326 90.5714 59.2446 90.7314C58.9726 90.8754 58.6366 90.9874 58.2366 91.0674H58.2606C58.0526 91.1314 57.8446 91.1794 57.6366 91.2114C57.4446 91.2274 57.2606 91.2354 57.0846 91.2354ZM70.5728 92.3154C70.1408 92.0434 69.8048 91.6594 69.5648 91.1634C69.3248 90.6514 69.2128 90.1394 69.2288 89.6274C69.2128 88.6354 69.2928 87.6354 69.4688 86.6274C69.6608 85.6034 69.9088 84.6114 70.2128 83.6514C70.4208 83.0754 70.6448 82.4834 70.8848 81.8754C71.1408 81.2514 71.3968 80.6674 71.6528 80.1234C71.9088 79.5794 72.1328 79.1474 72.3248 78.8274C72.8208 78.0114 73.3408 77.3394 73.8848 76.8114C74.4448 76.2674 74.8608 75.9154 75.1328 75.7554C75.3568 75.6274 75.7408 75.4994 76.2848 75.3714C76.8448 75.2434 77.4208 75.2514 78.0128 75.3954C78.4288 75.5074 78.8128 75.6434 79.1648 75.8034C79.5328 75.9634 79.7728 76.0994 79.8848 76.2114C80.0128 76.4034 80.1248 76.5714 80.2208 76.7154C80.3328 76.8434 80.3888 77.0034 80.3888 77.1954C80.4048 77.3234 80.3568 77.4834 80.2448 77.6754C80.1488 77.8514 80.0208 77.9794 79.8608 78.0594C79.7168 78.1394 79.5728 78.0994 79.4288 77.9394C79.2208 77.6194 79.0048 77.4034 78.7808 77.2914C78.5568 77.1634 78.3168 77.0354 78.0608 76.9074C77.8848 76.7954 77.6448 76.7394 77.3408 76.7394C77.0368 76.7234 76.7248 76.7554 76.4048 76.8354C76.0848 76.9154 75.8048 77.0514 75.5648 77.2434C75.4048 77.3874 75.1968 77.6034 74.9408 77.8914C74.6848 78.1634 74.4288 78.4674 74.1728 78.8034C73.9168 79.1394 73.7088 79.4674 73.5488 79.7874C73.1168 80.5394 72.7248 81.2994 72.3728 82.0674C72.0368 82.8194 71.7488 83.6434 71.5088 84.5394C71.4448 84.7634 71.3568 85.0914 71.2448 85.5234C71.1488 85.9554 71.0528 86.3874 70.9568 86.8194C70.8608 87.2514 70.7968 87.6034 70.7648 87.8754C70.6528 88.6594 70.6128 89.3474 70.6448 89.9394C70.6928 90.5314 70.9008 90.9394 71.2688 91.1634C71.6368 91.3874 72.2448 91.3554 73.0928 91.0674C73.4608 91.0194 73.8528 90.8594 74.2688 90.5874C74.7008 90.3154 75.1168 89.9794 75.5168 89.5794C75.9328 89.1634 76.2848 88.7234 76.5728 88.2594C76.8448 87.7474 77.0848 87.2434 77.2928 86.7474C77.5168 86.2514 77.6368 85.8434 77.6528 85.5234C77.6688 85.2034 77.5168 85.0514 77.1968 85.0674C76.6048 85.0034 76.1248 84.9874 75.7568 85.0194C75.3888 85.0354 75.0608 84.9794 74.7728 84.8514C74.6608 84.6754 74.6128 84.4994 74.6288 84.3234C74.6448 84.1474 74.7408 83.9714 74.9168 83.7954C75.0928 83.7314 75.3888 83.6834 75.8048 83.6514C76.2208 83.6194 76.6688 83.6354 77.1488 83.6994C77.6288 83.7474 78.0528 83.8594 78.4208 84.0354C78.6928 84.1634 78.8848 84.3554 78.9968 84.6114C79.1088 84.8514 79.1648 85.1314 79.1648 85.4514C79.1648 85.7714 79.1328 86.0994 79.0688 86.4354C78.9888 86.7874 78.8128 87.2114 78.5408 87.7074C78.2848 88.1874 77.9728 88.6994 77.6048 89.2434C77.3648 89.5794 77.0288 89.9474 76.5968 90.3474C76.1808 90.7474 75.7488 91.1074 75.3008 91.4274C74.8688 91.7474 74.5008 91.9634 74.1968 92.0754C73.5568 92.3634 72.9008 92.5474 72.2288 92.6274C71.5568 92.7234 71.0048 92.6194 70.5728 92.3154ZM82.2441 90.3474C81.9401 90.0754 81.7081 89.7954 81.5481 89.5074C81.4041 89.2194 81.2921 88.7634 81.2121 88.1394C81.1801 87.8514 81.2121 87.4754 81.3081 87.0114C81.4041 86.5314 81.5401 86.0274 81.7161 85.4994C81.8921 84.9714 82.0921 84.4914 82.3161 84.0594C82.5401 83.6114 82.7641 83.2754 82.9881 83.0514C83.1801 82.8114 83.3321 82.6834 83.4441 82.6674C83.5721 82.6354 83.7961 82.6914 84.1161 82.8354C84.2921 83.0434 84.3801 83.2674 84.3801 83.5074C84.3801 83.7474 84.2841 84.0194 84.0921 84.3234C83.7721 84.7554 83.4921 85.2994 83.2521 85.9554C83.0281 86.5954 82.8761 87.1714 82.7961 87.6834C82.6361 88.2274 82.5641 88.5954 82.5801 88.7874C82.5961 88.9794 82.7401 89.1074 83.0121 89.1714C83.3161 89.2354 83.6761 89.1234 84.0921 88.8354C84.5081 88.5314 84.9161 88.1154 85.3161 87.5874C85.7161 87.0434 86.0361 86.4514 86.2761 85.8114C86.3721 85.5874 86.4441 85.3234 86.4921 85.0194C86.5561 84.7154 86.6201 84.4914 86.6841 84.3474C86.7641 84.0274 86.8761 83.7954 87.0201 83.6514C87.1641 83.4914 87.3161 83.4034 87.4761 83.3874C87.6361 83.3554 87.7721 83.3874 87.8841 83.4834C88.0281 83.5474 88.1161 83.6274 88.1481 83.7234C88.1801 83.8034 88.1801 84.0274 88.1481 84.3954C88.1481 84.9874 88.0201 85.4914 87.7641 85.9074C87.5081 86.3234 87.2921 86.7634 87.1161 87.2274C86.9721 87.5634 86.7561 87.9394 86.4681 88.3554C86.1961 88.7714 85.8921 89.1474 85.5561 89.4834C85.2361 89.8194 84.9241 90.0514 84.6201 90.1794C84.1721 90.4674 83.7721 90.6114 83.4201 90.6114C83.0841 90.5954 82.6921 90.5074 82.2441 90.3474ZM93.6709 90.7314C93.3349 91.0194 92.9429 91.1874 92.4949 91.2354C92.0629 91.2834 91.6389 91.2194 91.2229 91.0434C90.8069 90.8514 90.4629 90.5634 90.1909 90.1794C89.9189 89.8274 89.7429 89.4274 89.6629 88.9794C89.5829 88.5154 89.5749 87.9154 89.6389 87.1794C89.6869 86.5554 89.8869 85.9314 90.2389 85.3074C90.5909 84.6674 91.0149 84.0994 91.5109 83.6034C92.0229 83.1074 92.5269 82.7634 93.0229 82.5714C93.2629 82.4114 93.4629 82.3394 93.6229 82.3554C93.7989 82.3554 94.0629 82.3714 94.4149 82.4034C94.7829 82.4514 95.0549 82.5234 95.2309 82.6194C95.4229 82.7154 95.5749 82.8434 95.6869 83.0034C95.9269 83.2434 96.0869 83.4834 96.1669 83.7234C96.2469 83.9474 96.2869 84.1714 96.2869 84.3954C96.2229 84.7474 95.9829 85.1794 95.5669 85.6914C95.1669 86.1874 94.6389 86.5954 93.9829 86.9154C93.6309 87.0274 93.2469 87.0754 92.8309 87.0594C92.4149 87.0434 92.0709 86.9394 91.7989 86.7474C91.4949 86.6194 91.2949 86.6434 91.1989 86.8194C91.1029 86.9794 91.0149 87.3794 90.9349 88.0194C90.8709 88.6274 90.9189 89.0754 91.0789 89.3634C91.2389 89.6354 91.4549 89.7954 91.7269 89.8434C92.0469 89.9074 92.2949 89.9554 92.4709 89.9874C92.6629 90.0034 92.8949 89.9314 93.1669 89.7714C93.4229 89.6114 93.5829 89.5234 93.6469 89.5074C93.7109 89.4754 93.7589 89.4434 93.7909 89.4114C93.8389 89.3634 93.9429 89.2594 94.1029 89.0994C94.2149 88.9874 94.3029 88.9074 94.3669 88.8594C94.4309 88.7954 94.5029 88.7634 94.5829 88.7634C94.6629 88.7634 94.7349 88.8034 94.7989 88.8834C94.8629 88.9474 94.9269 88.9954 94.9909 89.0274C95.1509 89.0274 95.1829 89.1234 95.0869 89.3154C95.0069 89.5074 94.8389 89.7394 94.5829 90.0114C94.3269 90.2674 94.0229 90.5074 93.6709 90.7314ZM93.6469 85.6434C93.8229 85.5634 94.0069 85.4514 94.1989 85.3074C94.3909 85.1474 94.5509 84.9794 94.6789 84.8034C94.8229 84.6114 94.8949 84.4514 94.8949 84.3234C94.8949 84.0994 94.7909 83.9154 94.5829 83.7714C94.3749 83.6114 94.0629 83.5874 93.6469 83.6994C93.4709 83.7474 93.2709 83.8674 93.0469 84.0594C92.8229 84.2354 92.6069 84.4354 92.3989 84.6594C92.2069 84.8834 92.0469 85.0834 91.9189 85.2594C91.8069 85.4354 91.7669 85.5394 91.7989 85.5714C91.8469 85.6514 91.9829 85.7154 92.2069 85.7634C92.4309 85.7954 92.6789 85.8034 92.9509 85.7874C93.2389 85.7714 93.4709 85.7234 93.6469 85.6434ZM97.7076 90.7314C97.5636 90.6194 97.4596 90.5074 97.3956 90.3954C97.3476 90.2834 97.3476 90.0674 97.3956 89.7474C97.4436 89.2994 97.5076 88.9074 97.5876 88.5714C97.6676 88.2194 97.7636 87.8194 97.8756 87.3714C97.9076 87.1794 97.9956 86.8514 98.1396 86.3874C98.2996 85.9234 98.4916 85.4194 98.7156 84.8754C98.9396 84.3314 99.1636 83.8194 99.3876 83.3394C99.6116 82.8434 99.8036 82.4754 99.9636 82.2354C100.092 82.1394 100.244 82.0994 100.42 82.1154C100.612 82.1314 100.772 82.2034 100.9 82.3314C101.076 82.4754 101.1 82.7314 100.972 83.0994C100.86 83.4514 100.62 84.0114 100.252 84.7794C100.06 85.2114 99.9156 85.5394 99.8196 85.7634C99.7236 85.9714 99.6836 86.0994 99.6996 86.1474C99.7156 86.1794 99.7876 86.1554 99.9156 86.0754C100.012 85.8994 100.188 85.6994 100.444 85.4754C100.7 85.2354 100.972 85.0034 101.26 84.7794C101.548 84.5554 101.82 84.3554 102.076 84.1794C102.332 84.0034 102.508 83.8914 102.604 83.8434C102.732 83.7634 102.876 83.6994 103.036 83.6514C103.212 83.5874 103.332 83.5394 103.396 83.5074C103.764 83.3314 104.14 83.2674 104.524 83.3154C104.908 83.3634 105.148 83.5074 105.244 83.7474C105.26 83.8754 105.308 83.9714 105.388 84.0354C105.484 84.0994 105.532 84.1314 105.532 84.1314C105.596 84.1314 105.628 84.1554 105.628 84.2034C105.644 84.2514 105.652 84.2754 105.652 84.2754C105.652 84.3874 105.564 84.4594 105.388 84.4914C105.228 84.5074 105.02 84.5234 104.764 84.5394C104.556 84.5554 104.372 84.5954 104.212 84.6594C104.052 84.7234 103.86 84.8034 103.636 84.8994C103.028 85.2514 102.444 85.5954 101.884 85.9314C101.34 86.2674 100.812 86.7154 100.3 87.2754C100.188 87.4034 100.076 87.5554 99.9636 87.7314C99.8516 87.9074 99.7316 88.0994 99.6036 88.3074C99.5236 88.3874 99.4436 88.5634 99.3636 88.8354C99.2836 89.1074 99.2116 89.3714 99.1476 89.6274C99.0996 89.8674 99.0756 90.0114 99.0756 90.0594C99.0756 90.0594 99.0516 90.1394 99.0036 90.2994C98.9556 90.4434 98.8756 90.5874 98.7636 90.7314C98.5716 90.9874 98.4116 91.1154 98.2836 91.1154C98.1556 91.1154 97.9636 90.9874 97.7076 90.7314ZM107.364 90.8274C107.316 90.8434 107.236 90.8354 107.124 90.8034C107.012 90.7714 106.9 90.7314 106.788 90.6834C106.676 90.6354 106.604 90.5954 106.572 90.5634C106.508 90.4994 106.444 90.4034 106.38 90.2754C106.332 90.1474 106.332 89.9634 106.38 89.7234C106.428 89.4674 106.588 89.1394 106.86 88.7394C106.94 88.5794 107.036 88.3394 107.148 88.0194C107.26 87.6994 107.372 87.3634 107.484 87.0114C107.612 86.6434 107.724 86.3154 107.82 86.0274C107.932 85.7394 108.012 85.5394 108.06 85.4274C108.092 85.1554 108.076 84.9634 108.012 84.8514C107.964 84.7234 107.828 84.6514 107.604 84.6354C107.444 84.6354 107.316 84.6194 107.22 84.5874C107.14 84.5554 107.1 84.3954 107.1 84.1074C107.132 83.8834 107.188 83.7314 107.268 83.6514C107.364 83.5554 107.492 83.4514 107.652 83.3394C107.812 83.2594 107.972 83.2034 108.132 83.1714C108.308 83.1394 108.476 83.1314 108.636 83.1474C108.796 83.1634 108.924 83.2194 109.02 83.3154C109.132 83.3794 109.204 83.5234 109.236 83.7474C109.268 83.9554 109.284 84.1714 109.284 84.3954C109.3 84.6194 109.316 84.7874 109.332 84.8994C109.492 84.7714 109.708 84.5954 109.98 84.3714C110.268 84.1314 110.516 83.9074 110.724 83.6994C110.98 83.5234 111.284 83.3474 111.636 83.1714C111.988 82.9794 112.244 82.8834 112.404 82.8834C112.58 82.8834 112.756 82.9314 112.932 83.0274C113.108 83.1074 113.228 83.2114 113.292 83.3394C113.452 83.6114 113.524 83.8514 113.508 84.0594C113.508 84.2674 113.42 84.4834 113.244 84.7074C113.084 84.9154 112.884 85.0594 112.644 85.1394C112.42 85.2194 112.276 85.2594 112.212 85.2594C112.116 85.2594 111.996 85.1874 111.852 85.0434C111.708 84.8994 111.628 84.7794 111.612 84.6834C111.612 84.6354 111.508 84.6834 111.3 84.8274C111.108 84.9554 110.892 85.1234 110.652 85.3314C110.412 85.5234 110.212 85.6994 110.052 85.8594C109.78 86.1954 109.492 86.6514 109.188 87.2274C108.884 87.8034 108.524 88.4994 108.108 89.3154C107.916 89.7154 107.78 90.0594 107.7 90.3474C107.62 90.6194 107.508 90.7794 107.364 90.8274ZM116.852 91.6434C116.148 91.6434 115.572 91.3794 115.124 90.8514C114.676 90.3074 114.46 89.6354 114.476 88.8354C114.508 88.2594 114.62 87.6434 114.812 86.9874C115.02 86.3154 115.292 85.6754 115.628 85.0674C115.964 84.4434 116.332 83.8994 116.732 83.4354C117.132 82.9714 117.548 82.6434 117.98 82.4514C118.14 82.3714 118.308 82.3074 118.484 82.2594C118.676 82.2114 118.868 82.1874 119.06 82.1874C119.236 82.1874 119.42 82.2194 119.612 82.2834C119.804 82.3314 119.964 82.3874 120.092 82.4514C120.364 82.5634 120.572 82.6994 120.716 82.8594C120.86 83.0194 120.988 83.2674 121.1 83.6034C121.148 83.9074 121.172 84.1234 121.172 84.2514C121.172 84.3794 121.132 84.5714 121.052 84.8274C120.86 85.4034 120.612 85.8994 120.308 86.3154C120.004 86.7314 119.596 87.0834 119.084 87.3714C118.956 87.4514 118.804 87.5154 118.628 87.5634C118.468 87.5954 118.3 87.6114 118.124 87.6114C117.804 87.6114 117.492 87.5554 117.188 87.4434C116.9 87.3154 116.668 87.1314 116.492 86.8914L116.324 86.6994L116.252 86.8914C116.092 87.3234 115.964 87.7234 115.868 88.0914C115.788 88.4594 115.748 88.7954 115.748 89.0994C115.748 89.2914 115.764 89.4754 115.796 89.6514C115.844 89.8274 115.908 89.9794 115.988 90.1074C116.052 90.2034 116.156 90.2754 116.3 90.3234C116.46 90.3554 116.628 90.3714 116.804 90.3714C116.916 90.3714 117.028 90.3714 117.14 90.3714C117.268 90.3554 117.388 90.3234 117.5 90.2754C117.772 90.1794 117.988 90.0754 118.148 89.9634C118.324 89.8514 118.5 89.7314 118.676 89.6034L118.772 89.5554H118.748C118.94 89.4594 119.108 89.3634 119.252 89.2674C119.412 89.1714 119.492 89.1234 119.492 89.1234C119.556 89.1234 119.62 89.0834 119.684 89.0034C119.812 88.9394 119.972 88.9634 120.164 89.0754C120.372 89.1874 120.476 89.3314 120.476 89.5074C120.46 89.5874 120.388 89.7154 120.26 89.8914C120.132 90.0514 119.988 90.2034 119.828 90.3474C119.684 90.4914 119.564 90.5714 119.468 90.5874C119.452 90.6034 119.396 90.6354 119.3 90.6834C119.204 90.7154 119.14 90.7474 119.108 90.7794H119.132C118.988 90.9714 118.844 91.0674 118.7 91.0674H118.508C118.444 91.1794 118.236 91.3074 117.884 91.4514C117.532 91.5794 117.188 91.6434 116.852 91.6434ZM117.932 86.3634C118.22 86.3634 118.468 86.2834 118.676 86.1234C118.9 85.9474 119.092 85.7554 119.252 85.5474C119.572 85.1154 119.756 84.6994 119.804 84.2994C119.868 83.8834 119.82 83.5954 119.66 83.4354C119.564 83.3874 119.476 83.3634 119.396 83.3634C119.332 83.3474 119.196 83.3714 118.988 83.4354C118.844 83.4674 118.644 83.5874 118.388 83.7954C118.132 84.0034 117.876 84.2354 117.62 84.4914C117.38 84.7474 117.196 84.9634 117.068 85.1394L116.756 85.6434C116.884 85.5954 117.004 85.5714 117.116 85.5714C117.244 85.5554 117.316 85.5634 117.332 85.5954C117.332 85.7394 117.356 85.8754 117.404 86.0034C117.468 86.1154 117.54 86.2034 117.62 86.2674C117.716 86.3314 117.82 86.3634 117.932 86.3634ZM123.553 91.0194C123.473 91.1794 123.353 91.2274 123.193 91.1634C123.049 91.0994 122.929 91.0354 122.833 90.9714C122.721 90.9714 122.625 90.9394 122.545 90.8754C122.465 90.8114 122.409 90.7154 122.377 90.5874C122.345 90.4914 122.337 90.3794 122.353 90.2514C122.369 90.1074 122.401 89.9474 122.449 89.7714C122.513 89.5794 122.577 89.3714 122.641 89.1474C122.769 88.6194 122.857 88.2354 122.905 87.9954C122.953 87.7554 123.001 87.5474 123.049 87.3714C123.097 87.1954 123.161 86.9394 123.241 86.6034C123.369 86.2834 123.473 85.9714 123.553 85.6674C123.633 85.3634 123.753 85.0594 123.913 84.7554C124.025 84.3394 124.161 83.9474 124.321 83.5794C124.497 83.1954 124.665 82.8754 124.825 82.6194C124.857 82.5714 124.913 82.5074 124.993 82.4274C125.089 82.3474 125.169 82.3074 125.233 82.3074C125.361 82.1794 125.473 82.1314 125.569 82.1634C125.681 82.1794 125.817 82.2514 125.977 82.3794C126.169 82.5874 126.241 82.8274 126.193 83.0994C126.161 83.3714 125.969 83.7714 125.617 84.2994C125.425 84.7954 125.249 85.2274 125.089 85.5954C124.929 85.9474 124.817 86.2834 124.753 86.6034C124.929 86.3474 125.121 86.1154 125.329 85.9074C125.553 85.6834 125.737 85.4994 125.881 85.3554C126.233 85.0034 126.521 84.7474 126.745 84.5874C126.985 84.4274 127.265 84.2434 127.585 84.0354C127.777 83.9074 127.961 83.7954 128.137 83.6994C128.313 83.5874 128.505 83.5074 128.713 83.4594C128.937 83.4114 129.177 83.4114 129.433 83.4594C129.593 83.4434 129.721 83.4914 129.817 83.6034C129.929 83.7154 130.017 83.8674 130.081 84.0594C130.145 84.2514 130.185 84.4754 130.201 84.7314C129.833 84.6514 129.505 84.6674 129.217 84.7794C128.929 84.8754 128.681 84.9954 128.473 85.1394C128.281 85.2834 128.129 85.3954 128.017 85.4754C127.777 85.6354 127.473 85.8514 127.105 86.1234C126.737 86.3794 126.369 86.6914 126.001 87.0594C125.713 87.3794 125.465 87.6514 125.257 87.8754C125.065 88.0994 124.905 88.2994 124.777 88.4754C124.665 88.6514 124.577 88.8354 124.513 89.0274C124.353 89.3954 124.185 89.7954 124.009 90.2274C123.833 90.6594 123.681 90.9234 123.553 91.0194ZM133.426 91.4274C133.218 91.4434 133.05 91.4274 132.922 91.3794C132.794 91.3154 132.634 91.2274 132.442 91.1154C132.09 90.8434 131.826 90.5714 131.65 90.2994C131.49 90.0114 131.418 89.7314 131.434 89.4594C131.466 89.3154 131.466 89.1874 131.434 89.0754C131.418 88.9634 131.41 88.9074 131.41 88.9074C131.314 88.8274 131.282 88.7794 131.314 88.7634C131.346 88.7314 131.37 88.6834 131.386 88.6194C131.514 88.5874 131.53 88.4994 131.434 88.3554C131.386 88.2274 131.41 87.9394 131.506 87.4914C131.618 87.0274 131.762 86.5954 131.938 86.1954C132.018 86.0194 132.13 85.7874 132.274 85.4994C132.434 85.2114 132.61 84.9234 132.802 84.6354C132.994 84.3314 133.17 84.0914 133.33 83.9154C133.682 83.5154 133.994 83.2194 134.266 83.0274C134.554 82.8194 134.874 82.6514 135.226 82.5234C135.546 82.3954 135.778 82.3234 135.922 82.3074C136.066 82.2914 136.266 82.3874 136.522 82.5954C136.906 82.7074 137.194 82.8674 137.386 83.0754C137.594 83.2674 137.754 83.5714 137.866 83.9874C137.994 84.4514 138.034 85.0034 137.986 85.6434C137.954 86.2674 137.682 87.0754 137.17 88.0674C136.866 88.6914 136.562 89.1634 136.258 89.4834C135.97 89.8034 135.618 90.1394 135.202 90.4914C134.898 90.7474 134.618 90.9474 134.362 91.0914C134.106 91.2354 133.794 91.3474 133.426 91.4274ZM135.346 88.5714C135.666 88.0914 135.914 87.6514 136.09 87.2514C136.282 86.8354 136.434 86.3154 136.546 85.6914C136.578 85.5154 136.586 85.2994 136.57 85.0434C136.554 84.7714 136.514 84.5234 136.45 84.2994C136.402 84.0754 136.33 83.9554 136.234 83.9394C136.026 83.8594 135.794 83.8594 135.538 83.9394C135.282 84.0034 135.002 84.1954 134.698 84.5154C134.426 84.8354 134.178 85.1954 133.954 85.5954C133.746 85.9954 133.554 86.4354 133.378 86.9154C133.202 87.3954 133.034 87.9074 132.874 88.4514C132.714 89.0594 132.722 89.5234 132.898 89.8434C133.09 90.1634 133.402 90.2434 133.834 90.0834C134.266 89.9074 134.77 89.4034 135.346 88.5714Z" fill="#24292F"/>
<defs>
<clipPath id="clip0_446_4082">
<rect width="70" height="68.5714" fill="white" transform="translate(34)"/>
</clipPath>
</defs>
</svg>
