<svg clip-rule="evenodd" fill-rule="evenodd" height="512" stroke-linejoin="round" stroke-miterlimit="2" viewBox="0 0 267 267" width="512" xmlns="http://www.w3.org/2000/svg">
    
    <!-- O color -->
    <path class="o-color" d="m69.183 29.179c-22.202 0-40.227 18.025-40.227 40.227s18.025 40.227 40.227 40.227 40.228-18.025 40.228-40.227-18.026-40.227-40.228-40.227zm0 14.986c13.931 0 25.241 11.31 25.241 25.241s-11.31 25.241-25.241 25.241c-13.93 0-25.24-11.31-25.24-25.241s11.31-25.241 25.24-25.241z" fill="#00a1ff"/>
    <path class="o-color" d="m197.483 157.26c-22.202 0-40.227 18.025-40.227 40.227s18.025 40.227 40.227 40.227 40.227-18.025 40.227-40.227-18.025-40.227-40.227-40.227zm0 14.986c13.931 0 25.241 11.31 25.241 25.241s-11.31 25.241-25.241 25.241-25.241-11.31-25.241-25.241 11.31-25.241 25.241-25.241z" fill="#00a1ff"/>
    
    <!-- Divider color -->
    <path class="divider-color" d="m121.287 111.318c0 .001 0 .002-.001.002-.12 5.577-4.612 10.068-10.188 10.189-.001 0-.002 0-.003 0-7.534.172-14.924.408-22.023.649-36.293 1.23-64.883 3.036-66.295 3.126-4.526.039-8.194 3.73-8.194 8.272 0 4.565 3.705 8.271 8.27 8.273l-.07-.001c1.478.094 30.042 1.897 66.289 3.125 7.12.242 14.533.479 22.091.651h.002c5.565.12 10.052 4.594 10.189 10.159v.003c.195 7.544.451 14.943.695 22.052 1.246 36.319 2.932 64.933 3.012 66.289.037 4.529 3.729 8.199 8.272 8.199 4.547 0 8.242-3.677 8.273-8.216.084-1.408 1.767-29.997 3.012-66.272.244-7.13.501-14.552.697-22.119 0-.001 0-.002 0-.003.136-5.553 4.605-10.023 10.158-10.159h.003c7.567-.195 14.99-.452 22.12-.697 36.319-1.246 64.932-2.932 66.288-3.012 4.53-.037 8.199-3.729 8.199-8.272 0-4.547-3.676-8.242-8.216-8.273-1.408-.084-29.996-1.767-66.271-3.012-7.109-.244-14.509-.5-22.053-.695-.001 0-.002 0-.003 0-5.564-.136-10.038-4.624-10.158-10.189 0 0 0-.001 0-.002-.173-7.557-.41-14.97-.651-22.091-1.23-36.293-3.036-64.883-3.126-66.294-.039-4.527-3.73-8.194-8.272-8.194-4.564 0-8.271 3.705-8.272 8.269v-.07c-.094 1.479-1.897 30.042-3.125 66.289-.241 7.099-.477 14.489-.649 22.024z" fill="#314a75"/>
    
    <!-- X color -->
    <g class="x-color" fill="#ea3d5e">
     
        <path d="m55.031 195.441c1.13 1.13 1.13 2.962 0 4.092 0 .001-19.477 19.478-19.477 19.478-3.341 3.34-3.341 8.765 0 12.106 3.341 3.34 8.765 3.34 12.106 0 0 0 19.477-19.477 19.477-19.477 1.13-1.131 2.963-1.131 4.093-.001 0 .001 19.477 19.478 19.477 19.478 3.341 3.34 8.765 3.34 12.106 0 3.341-3.341 3.341-8.766 0-12.106 0 0-19.477-19.477-19.477-19.477-1.13-1.131-1.13-2.963 0-4.093 0 0 19.477-19.477 19.477-19.477 3.341-3.341 3.341-8.766 0-12.106-3.341-3.341-8.765-3.341-12.106 0 0 0-19.477 19.477-19.477 19.477-1.13 1.13-2.963 1.13-4.093 0 0 0-19.477-19.477-19.477-19.477-3.341-3.341-8.765-3.341-12.106 0-3.341 3.34-3.341 8.765 0 12.106z"/>
        <path d="m187.423 63.049c1.13 1.131 1.13 2.963 0 4.093 0 0-19.477 19.477-19.477 19.477-3.341 3.341-3.341 8.765 0 12.106 3.34 3.341 8.765 3.341 12.105 0 0 0 19.477-19.477 19.477-19.477 1.131-1.13 2.963-1.13 4.093 0 0 0 19.477 19.477 19.477 19.477 3.341 3.341 8.766 3.341 12.106 0 3.341-3.341 3.341-8.765 0-12.106 0 0-19.477-19.477-19.477-19.477-1.13-1.13-1.13-2.962 0-4.093 0 0 19.477-19.477 19.477-19.477 3.341-3.341 3.341-8.765 0-12.106-3.34-3.34-8.765-3.34-12.106 0 0 0-19.477 19.477-19.477 19.477-1.13 1.131-2.962 1.131-4.092.001-.001-.001-19.478-19.478-19.478-19.478-3.34-3.34-8.765-3.34-12.105 0-3.341 3.341-3.341 8.765 0 12.106z"/>
    </g>
</svg>