<svg width="139" height="139" viewBox="0 0 139 139" fill="none" xmlns="http://www.w3.org/2000/svg">
<path d="M43.2153 64.3071L43.2149 64.3066L5.86569 26.9574C0.0447689 21.1365 0.0447689 11.6852 5.86569 5.86426C11.6847 0.0452479 21.1379 0.0452479 26.9569 5.86426L64.308 43.2153C67.0608 45.9681 71.5239 45.9681 74.2767 43.2129L111.625 5.86441C111.625 5.86436 111.625 5.86431 111.625 5.86426C117.446 0.045108 126.9 0.0453888 132.719 5.86426C138.539 11.6852 138.539 21.1365 132.719 26.9574L95.3694 64.3066L95.3689 64.3071C92.6171 67.0613 92.6164 71.5237 95.3694 74.2767L132.719 111.626C138.539 117.447 138.539 126.898 132.719 132.719L132.718 132.719C126.899 138.54 117.446 138.54 111.625 132.719L74.2762 95.3699C71.5232 92.6169 67.0608 92.6176 64.3066 95.3694L64.3061 95.3699L26.9569 132.719L26.9568 132.719C21.1378 138.54 11.6848 138.54 5.86585 132.719L5.86569 132.719C0.0447689 126.898 0.0447689 117.447 5.86569 111.626L43.2149 74.2767C45.9678 71.5237 45.9671 67.0613 43.2153 64.3071Z" stroke="#EA3D5E" stroke-width="3"/>
</svg>
