<svg width="139" height="139" viewBox="0 0 139 139" fill="none" xmlns="http://www.w3.org/2000/svg">
<path fill-rule="evenodd" clip-rule="evenodd" d="M42.1542 65.3673C44.3211 67.5361 44.3211 71.0491 42.1542 73.216L4.80503 110.565C-1.60168 116.972 -1.60168 127.373 4.80503 133.78C11.2098 140.186 21.6128 140.186 28.0176 133.78L65.3668 96.4305C67.5356 94.2636 71.0486 94.2636 73.2155 96.4305L110.565 133.78C116.971 140.186 127.374 140.186 133.779 133.78C140.186 127.373 140.186 116.972 133.779 110.565L96.43 73.216C94.2631 71.0491 94.2631 67.5361 96.43 65.3673L133.779 28.0181C140.186 21.6114 140.186 11.2103 133.779 4.8036C127.374 -1.6012 116.971 -1.6012 110.565 4.8036L73.2155 42.1528C71.0486 44.3216 67.5356 44.3216 65.3687 42.1547L28.0176 4.8036C21.6128 -1.6012 11.2098 -1.6012 4.80503 4.8036C-1.60168 11.2103 -1.60168 21.6114 4.80503 28.0181L42.1542 65.3673Z" fill="#EA3D5E"/>
</svg>
